<svg width="24" height="24" viewBox="0 0 24 24" fill="none" xmlns="http://www.w3.org/2000/svg">
<g id="deployed_code_history">
<mask id="mask0_2002_227" style="mask-type:alpha" maskUnits="userSpaceOnUse" x="0" y="0" width="24" height="24">
<rect id="Bounding box" width="24" height="24" fill="#D9D9D9"/>
</mask>
<g mask="url(#mask0_2002_227)">
<path id="deployed_code_history_2" d="M17.5 17.8V15.5C17.5 15.3667 17.45 15.25 17.35 15.15C17.25 15.05 17.1333 15 17 15C16.8667 15 16.75 15.05 16.65 15.15C16.55 15.25 16.5 15.3667 16.5 15.5V17.775C16.5 17.9083 16.525 18.0375 16.575 18.1625C16.625 18.2875 16.7 18.4 16.8 18.5L18.3 20C18.4 20.1 18.5167 20.15 18.65 20.15C18.7833 20.15 18.9 20.1 19 20C19.1 19.9 19.15 19.7833 19.15 19.65C19.15 19.5167 19.1 19.4 19 19.3L17.5 17.8ZM11 2.275C11.3167 2.09167 11.65 2 12 2C12.35 2 12.6833 2.09167 13 2.275L20 6.3C20.3167 6.48333 20.5625 6.725 20.7375 7.025C20.9125 7.325 21 7.65833 21 8.025V12.25C20.4333 11.85 19.8125 11.5417 19.1375 11.325C18.4625 11.1083 17.75 11 17 11C16.7167 11 16.4458 11.0125 16.1875 11.0375C15.9292 11.0625 15.6667 11.1083 15.4 11.175L18.1 9.625C18.35 9.49167 18.5042 9.28333 18.5625 9C18.6208 8.71667 18.575 8.45833 18.425 8.225C18.2917 7.99167 18.0958 7.84583 17.8375 7.7875C17.5792 7.72917 17.3333 7.76667 17.1 7.9L12 10.85L6.9 7.9C6.66667 7.76667 6.425 7.72917 6.175 7.7875C5.925 7.84583 5.725 7.99167 5.575 8.225C5.425 8.45833 5.37917 8.71667 5.4375 9C5.49583 9.28333 5.65 9.49167 5.9 9.625L11 12.575V14.4C10.6833 14.9333 10.4375 15.5 10.2625 16.1C10.0875 16.7 10 17.3333 10 18C10 18.7 10.0958 19.3667 10.2875 20C10.4792 20.6333 10.75 21.225 11.1 21.775C11.0833 21.7583 11.0667 21.75 11.05 21.75C11.0333 21.75 11.0167 21.7417 11 21.725L4 17.7C3.68333 17.5167 3.4375 17.275 3.2625 16.975C3.0875 16.675 3 16.3417 3 15.975V8.025C3 7.65833 3.0875 7.325 3.2625 7.025C3.4375 6.725 3.68333 6.48333 4 6.3L11 2.275ZM17 23C15.6167 23 14.4375 22.5125 13.4625 21.5375C12.4875 20.5625 12 19.3833 12 18C12 16.6167 12.4875 15.4375 13.4625 14.4625C14.4375 13.4875 15.6167 13 17 13C18.3833 13 19.5625 13.4875 20.5375 14.4625C21.5125 15.4375 22 16.6167 22 18C22 19.3833 21.5125 20.5625 20.5375 21.5375C19.5625 22.5125 18.3833 23 17 23Z" fill="#6E8BB7"/>
</g>
</g>
</svg>
